<?xml version="1.0" encoding="utf-8"?>
<!-- Generator: Adobe Illustrator 19.2.1, SVG Export Plug-In . SVG Version: 6.00 Build 0)  -->
<svg version="1.1" id="Layer_1" xmlns="http://www.w3.org/2000/svg" xmlns:xlink="http://www.w3.org/1999/xlink" x="0px" y="0px"
	 viewBox="0 0 820.8 820.8" style="enable-background:new 0 0 820.8 820.8;" xml:space="preserve">
<path style="fill:#EA3224;" d="M402.7436,472.796c-3.2723,0-7.5223-1.9245-24.0867,5.6588
	c-6.7534,3.0918-12.2504,3.5815-21.272,0.2717c-9.0216-3.3097-8.3772-3.3097-13.7472-3.3097c-5.37,0-12.0288,5.7001-15.6804,3.4936
	c-3.6516-2.2065-0.8592-4.413,2.5776-5.884s14.3916-6.2517,13.5324-15.0777c-0.8592-8.826-14.6755-10.3661-16.3248-10.8486
	c-2.9088-0.8509-17.4825-2.0431-12.3273-9.5819s7.6017-9.541,2.6613-14.8734c-4.9404-5.3324-19.3319-4.5969-20.4059-10.1131
	s3.4368-4.9646,3.0072-7.5388c-0.4296-2.5742-7.7328-3.6775-6.6588-6.9872c1.074-3.3097,4.7256-2.5742,5.37-6.9872
	c0.6444-4.413-1.074-7.355-4.9404-10.1131c-3.8664-2.7581-7.3032-2.2065-4.5108-5.884s1.7975-5.5162-1.8541-9.5615
	c-3.6516-4.0452-18.125-18.8357-13.625-22.7107c2.9592-2.5482,12.4468,9.5209,19.75,13.75c7.3032,4.2291,7.2208,2.617,9.0466,1.0541
	c1.8258-1.563,3.6516-2.2065,6.8736,1.8387c3.222,4.0453,9.5338,12.3798,13.8298,10.3572s6.8614-5.0307,10.0833-0.25
	s13.8474,14.4865,17.1136,13.2449c5.7406-2.1824,19.3537,9.3831,27.3013,14.5316c7.9476,5.1485,10.0673-2.8838,9.5891-6.7511
	c-1.8373-14.8587-27.0039-27.692-29.6946-39.4069c-1.208-5.2596,1.9332-6.6195,7.518-6.0679
	c5.5848,0.5516,7.518-2.7581,7.0884-4.7807s-4.1886-9.9292,1.3962-9.9292c5.5848,0,8.1624,1.2871,8.1624-5.884
	s-1.611-11.5841,0.9666-15.2616c2.5776-3.6775,7.2697-3.1115,11.4757-4.6117c3.1917-1.1384,1.1667-4.6667,5.5672-16.4411
	c0.5978-1.5997,3.0933-2.5322,3.1083,0.2592c0.0905,16.8035-0.0336,71.6819-0.0675,72.4623
	c-0.0498,1.146,0.5711,5.6856-6.8736,1.1342c-10.4681-6.3997-18.2344-10.748-19.8594-9.623
	c-2.9394,2.035,1.1345,7.368,9.3343,12.534c13.0407,8.216,16.5636,8.826,17.2079,12.3196
	c0.501,2.7163,0.2294,31.4443-0.0636,44.3137c-0.1745,7.6633-11.473,8.4328-21.6552,4.413
	c-11.2209-4.4299-69.595-51.8554-73.6762-55.8978c-2.7808-2.7544-11.5276-4.413,2.6492,9.0099
	c14.1768,13.4228,44.9581,37.6917,51.8383,43.8234c5.2268,4.6582-4.5824,7.7227-10.8832,9.1324
	c-4.1564,0.9299-19.4752,3.1259-15.2508,6.0678c5.6994,3.9692,29.2843-3.8614,36.9455-3.8614
	c10.2408,0,10.8474,2.6662,3.8664,8.6421c-6.981,5.9759-24.7019,22.9843-23.4131,27.3973
	c1.2888,4.413,10.9548-5.3324,15.8952-10.6647c4.9404-5.3324,17.2755-19.0109,22.3391-20.4101
	c4.4828-1.2387,11.2056,0.3677,11.2056,4.9646L402.7436,472.796z M410.4096,396.1206c0,0-0.5013,21.8417,0.0926,27.3027
	c0.5938,5.461,3.2661,8.3102,9.7984,6.4108s77.4521-47.0122,82.2028-50.0988c4.7508-3.0866,5.9384,0.9497,3.5631,2.8492
	c-2.3754,1.8995-39.7876,29.9168-47.5075,34.6655c-7.72,4.7487-10.0953,8.7851,5.3446,6.4108
	c15.4399-2.3744,28.2076-11.3969,31.4737-9.9723s-20.4876,14.2461-32.9583,15.4333s-27.9107,3.799-23.4568,9.26
	s5.9384,10.6846,2.9692,10.6846c-2.9692,0-9.5085-7.433-16.6277-7.123c-5.1805,0.2255-13.9882,0.5577-14.5175,10.4401
	c-0.5437,10.1505,0.0833,69.5027,0.0833,87.0833c0,7.2391,5.6454,5.3454,6.8331,2.0213c1.1877-3.3241-1.5588-46.8341-0.6681-54.1946
	s3.7727-18.0167,10.305-18.0167s8.0067,5.9612,13,3.0833c4.074-2.3481,4.72-3.25,7.3033-3
	c3.8542,0.373,5.0826,5.3275,10.4272,4.3777c5.3446-0.9497,3.7371-6.43,10.2874-4.0299c19.0654,6.9855,15.143,1.6774,8.3138-3.0713
	c-6.8292-4.7487-10.3923-8.5477-7.423-13.7712c2.9692-5.2236,10.6892-8.0728,19.8938-9.9723s7.423-4.5113,2.9692-7.123
	s-5.9384-5.9359,2.3754-9.0226c8.3138-3.0866,25.8322-11.8718,27.6138-14.4836c1.7815-2.6118,0.8907-3.0866-5.6415-5.9359
	c-6.5323-2.8492,8.0169-11.1595,11.283-15.6707c3.2662-4.5113,5.6415-7.123,0-8.5477c-5.6415-1.4246-8.7933-4.2224-6.2354-8.3096
	c7.6664-12.25,24.3745-28.6268,16.3745-30.1268c-2.7183-0.5096-19.4435,13.7994-26.4581,19.1268
	c-4.5838,3.4813-5.3563,1.2645-8.0286-0.3975s-5.6415,12.3466-10.0954,12.3466c-4.4538,0-3.2661-3.799-7.72-3.799
	c-4.4538,0-6.2309,16.6205-10.0931,16.6205c-3.8622,0-3.5653-4.0364-6.8315-3.5616c-3.2661,0.4749-22.0015,22.0815-33.5815,13.2964
	c-11.58-8.7851,8.9369-24.2184,14.5785-29.6794c5.6415-5.461,13.5099-11.7531,10.0953-14.4836s-5.0477,0.9497-12.1738,0
	s-13.3615-3.3241-10.3923-14.0087c2.9692-10.6846,2.7804-16.9297-3.0944-20.5838c-6.6045-4.1079-8-4.75-9-8.5
	c-1.4154-5.3077,2-9-12.33-22.0833c-3.1773-2.9009-3.5886-0.9992-3.3125,4.4235c0.1159,2.2759,0.745,38.5455,1.3109,40.8078
	c1.1877,4.7487,2.6723,5.9359,8.9077,2.8492c6.2354-3.0866,7.8684-5.6984,9.5015-4.0364
	c3.124,3.1794-13.1224,14.4099-16.6916,17.264c-2.5125,2.0091-3.0091,28.2048,0.2571,27.2551
	c3.2661-0.9497,21.4822-13.89,23.8576-13.89c4.7969,0,0,6.1733-7.1261,10.922C422.3345,378.3106,411.8943,387.098,410.4096,396.1206
	z"/>
</svg>
