<?xml version="1.0" encoding="utf-8"?>
<svg id="master-artboard" viewBox="0 0 2562 1600" xmlns="http://www.w3.org/2000/svg" width="2562px" height="1600px" xmlns:xlink="http://www.w3.org/1999/xlink"><defs><filter id="luminosity-noclip" x="1" y="-8992" width="2560" height="32766" filterUnits="userSpaceOnUse" color-interpolation-filters="sRGB"><feFlood flood-color="#fff" result="bg"/><feBlend in="SourceGraphic" in2="bg"/></filter><mask id="mask" x="1" y="-8992" width="2560" height="32766" maskUnits="userSpaceOnUse"><g filter="url(#luminosity-noclip)"/></mask><linearGradient id="Fade_to_Black_8" x1="1281" y1="1781" x2="1281" y2="496.89" gradientUnits="userSpaceOnUse"><stop offset="0" stop-color="#fff"/><stop offset="0.06" stop-color="#dadada"/><stop offset="0.16" stop-color="#a7a7a7"/><stop offset="0.26" stop-color="#7b7b7b"/><stop offset="0.37" stop-color="#555"/><stop offset="0.48" stop-color="#363636"/><stop offset="0.59" stop-color="#1e1e1e"/><stop offset="0.71" stop-color="#0d0d0d"/><stop offset="0.84" stop-color="#030303"/><stop offset="1"/></linearGradient><filter id="luminosity-noclip-2" x="1103.9" y="-8992" width="137.78" height="32766" filterUnits="userSpaceOnUse" color-interpolation-filters="sRGB"><feFlood flood-color="#fff" result="bg"/><feBlend in="SourceGraphic" in2="bg"/></filter><mask id="mask-2" x="1103.9" y="-8992" width="137.78" height="32766" maskUnits="userSpaceOnUse"><g filter="url(#luminosity-noclip-2)"/></mask><linearGradient id="Fade_to_Black_3" x1="1217.92" y1="1621.78" x2="1179.15" y2="1384.17" xlink:href="#Fade_to_Black_8"/><filter id="luminosity-noclip-3" x="1535.34" y="-8992" width="211.11" height="32766" filterUnits="userSpaceOnUse" color-interpolation-filters="sRGB"><feFlood flood-color="#fff" result="bg"/><feBlend in="SourceGraphic" in2="bg"/></filter><mask id="mask-3" x="1535.34" y="-8992" width="211.11" height="32766" maskUnits="userSpaceOnUse"><g filter="url(#luminosity-noclip-3)"/></mask><linearGradient id="Fade_to_Black_2" x1="1888.46" y1="619.99" x2="1495.48" y2="742.98" xlink:href="#Fade_to_Black_8"/><filter id="luminosity-noclip-4" x="1495.41" y="-8992" width="1050.96" height="32766" filterUnits="userSpaceOnUse" color-interpolation-filters="sRGB"><feFlood flood-color="#fff" result="bg"/><feBlend in="SourceGraphic" in2="bg"/></filter><mask id="mask-4" x="1495.41" y="-8992" width="1050.96" height="32766" maskUnits="userSpaceOnUse"><g filter="url(#luminosity-noclip-4)"/></mask><linearGradient id="Fade_to_Black_7" x1="2020.89" y1="1637" x2="2020.89" y2="-303.21" xlink:href="#Fade_to_Black_8"/><filter id="luminosity-noclip-5" x="635.81" y="-8992" width="863.73" height="32766" filterUnits="userSpaceOnUse" color-interpolation-filters="sRGB"><feFlood flood-color="#fff" result="bg"/><feBlend in="SourceGraphic" in2="bg"/></filter><mask id="mask-5" x="635.81" y="-8992" width="863.73" height="32766" maskUnits="userSpaceOnUse"><g filter="url(#luminosity-noclip-5)"/></mask><linearGradient id="Fade_to_Black_6" x1="1067.67" y1="2013" x2="1067.67" y2="72.8" xlink:href="#Fade_to_Black_8"/><filter id="luminosity-noclip-6" x="1188.54" y="-8992" width="919.49" height="32766" filterUnits="userSpaceOnUse" color-interpolation-filters="sRGB"><feFlood flood-color="#fff" result="bg"/><feBlend in="SourceGraphic" in2="bg"/></filter><mask id="mask-6" x="1188.54" y="-8992" width="919.49" height="32766" maskUnits="userSpaceOnUse"><g filter="url(#luminosity-noclip-6)"/></mask><linearGradient id="Fade_to_Black_5" x1="1787.04" y1="1194.72" x2="1340" y2="906.69" xlink:href="#Fade_to_Black_8"/><filter id="luminosity-noclip-7" x="1346.34" y="-8992" width="919.49" height="32766" filterUnits="userSpaceOnUse" color-interpolation-filters="sRGB"><feFlood flood-color="#fff" result="bg"/><feBlend in="SourceGraphic" in2="bg"/></filter><mask id="mask-7" x="1346.34" y="-8992" width="919.49" height="32766" maskUnits="userSpaceOnUse"><g filter="url(#luminosity-noclip-7)"/></mask><linearGradient id="Fade_to_Black_4" x1="1806.08" y1="1663.73" x2="1806.08" y2="667.26" xlink:href="#Fade_to_Black_8"/><filter id="luminosity-noclip-8" x="1" y="0" width="2560" height="1600" filterUnits="userSpaceOnUse" color-interpolation-filters="sRGB"><feFlood flood-color="#fff" result="bg"/><feBlend in="SourceGraphic" in2="bg"/></filter><mask id="mask-8" x="2" y="0" width="2560" height="1600" maskUnits="userSpaceOnUse"><g filter="url(#luminosity-noclip-8)"><g transform="translate(1 0)"><g mask="url(#mask)"><path d="M 1 0 H 2561 V 1600 H 1 V 0 Z" id="_Path_" data-name="&lt;Path&gt;" fill="url(#Fade_to_Black_8)" style="mix-blend-mode:multiply"/></g></g></g></mask><linearGradient id="Fade_to_Black_1" x1="1282" y1="1781" x2="1282" y2="496.89" gradientUnits="userSpaceOnUse"><stop offset="0" stop-color="#231f20"/><stop offset="0.09" stop-color="#231f20"/><stop offset="1" stop-color="#231f20"/></linearGradient><filter id="luminosity-noclip-9" x="1495.41" y="219.96" width="1050.96" height="1380.04" filterUnits="userSpaceOnUse" color-interpolation-filters="sRGB"><feFlood flood-color="#fff" result="bg"/><feBlend in="SourceGraphic" in2="bg"/></filter><mask id="mask-9" x="1496.41" y="219.96" width="1050.96" height="1380.04" maskUnits="userSpaceOnUse"><g filter="url(#luminosity-noclip-9)"><g transform="translate(1 0)"><g mask="url(#mask-4)"><path d="M 1685.800048828125 319.6000061035156 L 1742.800048828125 220 L 1698 325 L 1748.199951171875 347 L 1752.0999755859375 348.70001220703125 L 1753.699951171875 353.3999938964844 L 1795.0999755859375 472.70001220703125 L 1828.800048828125 443.70001220703125 L 1810.9000244140625 387 L 1838.800048828125 435.1000061035156 L 1876.0999755859375 403 L 1870.300048828125 327.70001220703125 L 1870.199951171875 325.8999938964844 L 1871.5999755859375 325.1000061035156 L 1943.800048828125 284.1000061035156 L 1875.9000244140625 328.70001220703125 L 1886.699951171875 404.6000061035156 L 1887.0999755859375 407.1000061035156 L 1885.0999755859375 409.1000061035156 L 1801.5 491.1000061035156 L 1827 564.7000122070312 L 2113.199951171875 686.5 L 2116.39990234375 492.20001220703125 L 2116.699951171875 474 L 2133.800048828125 472.8999938964844 L 2350.800048828125 459 L 2348.5 407.6000061035156 L 2256.199951171875 393.6000061035156 L 2252.39990234375 393 L 2253.199951171875 389.3999938964844 L 2262.800048828125 346.29998779296875 L 2229.699951171875 331.8999938964844 L 2263.800048828125 341.8999938964844 L 2274.60009765625 293.1000061035156 L 2260.699951171875 386.79998779296875 L 2347.89990234375 393.79998779296875 L 2342.60009765625 278.70001220703125 L 2373 457.5 L 2462.39990234375 456 L 2546.39990234375 354 L 2472.5 465.79998779296875 L 2470.89990234375 468.8999938964844 L 2467.10009765625 469.3999938964844 L 2195.5 515.5999755859375 L 2209.199951171875 1600 L 2099.10009765625 1600 L 2112 757 L 1803.199951171875 596.7999877929688 L 1794.9000244140625 592.5 L 1792.9000244140625 584.9000244140625 L 1734.5999755859375 363.6000061035156 L 1495.4000244140625 236.1999969482422 L 1685.800048828125 319.6000061035156 Z" fill="url(#Fade_to_Black_7)" style="mix-blend-mode:multiply"/></g></g></g></mask><linearGradient id="Fade_to_Black_1-2" x1="2021.89" y1="1637" x2="2021.89" y2="-303.21" xlink:href="#Fade_to_Black_1"/><filter id="luminosity-noclip-10" x="635.81" y="465.82" width="863.73" height="1134.18" filterUnits="userSpaceOnUse" color-interpolation-filters="sRGB"><feFlood flood-color="#fff" result="bg"/><feBlend in="SourceGraphic" in2="bg"/></filter><mask id="mask-10" x="636.81" y="465.82" width="863.73" height="1134.18" maskUnits="userSpaceOnUse"><g filter="url(#luminosity-noclip-10)"><g transform="translate(1 0)"><g mask="url(#mask-5)"><path d="M 792.2999877929688 547.7000122070312 L 839.0999755859375 465.79998779296875 L 802.2999877929688 552.0999755859375 L 843.5999755859375 570.2000122070312 L 846.7000122070312 571.5999755859375 L 848.0999755859375 575.5 L 882.0999755859375 673.5 L 909.7999877929688 649.7000122070312 L 895.0999755859375 603.0999755859375 L 918 642.5999755859375 L 948.7000122070312 616.2000122070312 L 943.9000244140625 554.4000244140625 L 943.7999877929688 552.9000244140625 L 945 552.2000122070312 L 1004.2999877929688 518.5999755859375 L 948.5 555.2000122070312 L 957.4000244140625 617.5999755859375 L 957.7000122070312 619.5999755859375 L 956 621.2000122070312 L 887.2999877929688 688.5999755859375 L 908.2999877929688 749.2000122070312 L 1143.5 849.2999877929688 L 1146.199951171875 689.5 L 1146.4000244140625 674.5999755859375 L 1160.4000244140625 673.7000122070312 L 1338.800048828125 662.2000122070312 L 1336.9000244140625 620 L 1261.0999755859375 608.5 L 1257.9000244140625 608 L 1258.5999755859375 605.0999755859375 L 1266.5 569.7000122070312 L 1239.300048828125 557.7999877929688 L 1267.300048828125 566 L 1276.199951171875 525.9000244140625 L 1264.800048828125 603 L 1336.4000244140625 608.5999755859375 L 1332 514.0999755859375 L 1357.0999755859375 661.0999755859375 L 1430.5 659.7999877929688 L 1499.5 576 L 1438.800048828125 667.9000244140625 L 1437.5999755859375 670.4000244140625 L 1434.4000244140625 670.7999877929688 L 1211.199951171875 708.7999877929688 L 1222.4000244140625 1600 L 1132 1600 L 1142.5999755859375 907.2000122070312 L 888.7999877929688 775.5 L 882 771.9000244140625 L 880.2999877929688 765.7000122070312 L 832.4000244140625 583.9000244140625 L 635.7999877929688 479.20001220703125 L 792.2999877929688 547.7000122070312 Z" fill="url(#Fade_to_Black_6)" style="mix-blend-mode:multiply"/></g></g></g></mask><linearGradient id="Fade_to_Black_1-3" x1="1068.67" y1="2013" x2="1068.67" y2="72.8" xlink:href="#Fade_to_Black_1"/><filter id="luminosity-noclip-11" x="1188.54" y="459" width="919.49" height="1141" filterUnits="userSpaceOnUse" color-interpolation-filters="sRGB"><feFlood flood-color="#fff" result="bg"/><feBlend in="SourceGraphic" in2="bg"/></filter><mask id="mask-11" x="1189.54" y="459" width="919.49" height="1141" maskUnits="userSpaceOnUse"><g filter="url(#luminosity-noclip-11)"><g transform="translate(1 0)"><g mask="url(#mask-6)"><path d="M2108,1600,1773.6,959h92.9V728c0-148.6-120.4-269-269-269h-8c-113.2,0-205,91.8-205,205V906.1c-2.4,132.8-78.6,215.4-195.9,215.4v140h168.9a27.1,27.1,0,0,1,27.1,27.1V1600Z" fill="url(#Fade_to_Black_5)" style="mix-blend-mode:multiply"/></g></g></g></mask><linearGradient id="Fade_to_Black_1-4" x1="1787.04" y1="1194.72" x2="1340" y2="906.69" xlink:href="#Fade_to_Black_1"/><filter id="luminosity-noclip-12" x="1346.34" y="183" width="919.49" height="1417" filterUnits="userSpaceOnUse" color-interpolation-filters="sRGB"><feFlood flood-color="#fff" result="bg"/><feBlend in="SourceGraphic" in2="bg"/></filter><mask id="mask-12" x="1347.34" y="183" width="919.49" height="1417" maskUnits="userSpaceOnUse"><g filter="url(#luminosity-noclip-12)"><g transform="translate(1 0)"><g mask="url(#mask-7)"><path d="M2265.8,1600,1910.5,976.8a27.5,27.5,0,0,1,4-32.6l68.9-72.3a25.8,25.8,0,0,0,4.8-7L2046,739.1a25.8,25.8,0,0,0,2.4-10.8v-130a25.8,25.8,0,0,1,3.9-13.6l75-120.8a25.8,25.8,0,0,0,3.7-10.8l18.3-168a25.8,25.8,0,0,0-5.1-18.4L2080.3,183v83.1a25.8,25.8,0,0,1-5.4,15.8l-78.8,101.1a25.8,25.8,0,0,1-20.3,9.9H1850a25.8,25.8,0,0,0-16.9,6.3l-61.5,53.4a25.8,25.8,0,0,1-16.9,6.3H1559.3c133.6,50.4,192.3,184,186.8,388.9A114,114,0,0,1,1632.2,959h-89.8c0,136.7-76.7,222-196,222v140h168.9a27.1,27.1,0,0,1,27.1,27.1V1600Z" fill="url(#Fade_to_Black_4)" style="mix-blend-mode:multiply"/></g></g></g></mask><linearGradient id="Fade_to_Black_1-5" x1="1806.08" y1="1663.73" x2="1806.08" y2="667.26" xlink:href="#Fade_to_Black_1"/><filter id="luminosity-noclip-13" x="1103.9" y="1090.4" width="137.78" height="509.6" filterUnits="userSpaceOnUse" color-interpolation-filters="sRGB"><feFlood flood-color="#fff" result="bg"/><feBlend in="SourceGraphic" in2="bg"/></filter><mask id="mask-13" x="1104.9" y="1090.4" width="137.78" height="509.6" maskUnits="userSpaceOnUse"><g filter="url(#luminosity-noclip-13)"><g transform="translate(1 0)"><g mask="url(#mask-2)"><path d="M 1103.9000244140625 1090.4000244140625 L 1185.300048828125 1600 L 1241.699951171875 1600 L 1160.199951171875 1090.4000244140625 L 1103.9000244140625 1090.4000244140625 Z" fill="url(#Fade_to_Black_3)" style="mix-blend-mode:multiply"/></g></g></g></mask><linearGradient id="Fade_to_Black_1-6" x1="1218.92" y1="1621.78" x2="1180.15" y2="1384.17" xlink:href="#Fade_to_Black_1"/><filter id="luminosity-noclip-14" x="1535.34" y="460.63" width="211.11" height="497.67" filterUnits="userSpaceOnUse" color-interpolation-filters="sRGB"><feFlood flood-color="#fff" result="bg"/><feBlend in="SourceGraphic" in2="bg"/></filter><mask id="mask-14" x="1536.34" y="460.63" width="211.11" height="497.67" maskUnits="userSpaceOnUse"><g filter="url(#luminosity-noclip-14)"><g transform="translate(1 0)"><g mask="url(#mask-3)"><path d="M1698.9,861a120.1,120.1,0,0,1-54.1,97.3,114.1,114.1,0,0,0,101.3-110.4c5.4-202.8-52-335.7-182.6-387.3a204,204,0,0,0-28.2,5.6C1652.6,528.1,1704.2,663,1698.9,861Z" fill="url(#Fade_to_Black_2)" style="mix-blend-mode:multiply"/></g></g></g></mask><linearGradient id="Fade_to_Black_1-7" x1="1888.46" y1="619.99" x2="1495.48" y2="742.98" xlink:href="#Fade_to_Black_1"/></defs><title>CONDOLENCES_OCT_17_EEZY_13</title><g id="Layer_1" data-name="Layer 1" transform="matrix(0.9999999999999999, 0, 0, 0.9999999999999999, -3.552713678800501e-15, -3.637978807091713e-12)" style="isolation: isolate;"><path d="M 0 0 H 2560 V 1600 H 0 V 0 Z" id="_Path_2" data-name="&lt;Path&gt;" fill="#58595b"/><path d="M1085.2,1388.7l-30.2,186.7-12.8-2.1-4.1,25.5,7.2,1.2H1132l4.3-279A90.7,90.7,0,0,0,1085.2,1388.7Z" transform="translate(1 0)" fill="#525354"/><path d="M1218.9,1323.9l3.5,276.1h12.4l29.5-182.3A90.8,90.8,0,0,0,1218.9,1323.9Z" transform="translate(1 0)" fill="#525354"/><path id="_Path_3" data-name="&lt;Path&gt;" d="M1052.9,1564.8V1307.4a123.6,123.6,0,0,0-123.6-123.6h0a123.6,123.6,0,0,0-123.6,123.6v257.4H788.1V1600h282.4v-35.2Z" transform="translate(1 0)" fill="#525354"/><path id="_Path_4" data-name="&lt;Path&gt;" d="M1467.8,1573.6V1380.4a92.7,92.7,0,0,0-92.7-92.7h0a92.7,92.7,0,0,0-92.7,92.7v193.2H1269V1600h212v-26.4Z" transform="translate(1 0)" fill="#525354"/><path id="_Path_5" data-name="&lt;Path&gt;" d="M2482.1,1600l40.2-248.1a123.6,123.6,0,0,0-102.2-141.7h0a123.6,123.6,0,0,0-141.7,102.2l-41.1,254.1-17.4-2.8-5.6,34.7,9.8,1.6Z" transform="translate(1 0)" fill="#525354"/><path id="_Path_6" data-name="&lt;Path&gt;" d="M757.4,1600l29.5-182.3a90.8,90.8,0,0,0-75.1-104.1h0a90.8,90.8,0,0,0-104.1,75.1l-30.2,186.7-12.8-2.1-4.1,25.5,7.2,1.2Z" transform="translate(1 0)" fill="#525354"/><g mask="url(#mask-8)"><path d="M 2 0 H 2562 V 1600 H 2 V 0 Z" id="_Path_7" data-name="&lt;Path&gt;" fill="url(#Fade_to_Black_1)" style="mix-blend-mode:darken"/></g><g mask="url(#mask-9)"><path d="M 1686.800048828125 319.6000061035156 L 1743.800048828125 220 L 1699 325 L 1749.199951171875 347 L 1753.0999755859375 348.70001220703125 L 1754.699951171875 353.3999938964844 L 1796.0999755859375 472.70001220703125 L 1829.800048828125 443.70001220703125 L 1811.9000244140625 387 L 1839.800048828125 435.1000061035156 L 1877.0999755859375 403 L 1871.300048828125 327.70001220703125 L 1871.199951171875 325.8999938964844 L 1872.5999755859375 325.1000061035156 L 1944.800048828125 284.1000061035156 L 1876.9000244140625 328.70001220703125 L 1887.699951171875 404.6000061035156 L 1888.0999755859375 407.1000061035156 L 1886.0999755859375 409.1000061035156 L 1802.5 491.1000061035156 L 1828 564.7000122070312 L 2114.199951171875 686.5 L 2117.39990234375 492.20001220703125 L 2117.699951171875 474 L 2134.800048828125 472.8999938964844 L 2351.800048828125 459 L 2349.5 407.6000061035156 L 2257.199951171875 393.6000061035156 L 2253.39990234375 393 L 2254.199951171875 389.3999938964844 L 2263.800048828125 346.29998779296875 L 2230.699951171875 331.8999938964844 L 2264.800048828125 341.8999938964844 L 2275.60009765625 293.1000061035156 L 2261.699951171875 386.79998779296875 L 2348.89990234375 393.79998779296875 L 2343.60009765625 278.70001220703125 L 2374 457.5 L 2463.39990234375 456 L 2547.39990234375 354 L 2473.5 465.79998779296875 L 2471.89990234375 468.8999938964844 L 2468.10009765625 469.3999938964844 L 2196.5 515.5999755859375 L 2210.199951171875 1600 L 2100.10009765625 1600 L 2113 757 L 1804.199951171875 596.7999877929688 L 1795.9000244140625 592.5 L 1793.9000244140625 584.9000244140625 L 1735.5999755859375 363.6000061035156 L 1496.4000244140625 236.1999969482422 L 1686.800048828125 319.6000061035156 Z" fill="url(#Fade_to_Black_1-2)" style="mix-blend-mode:darken"/></g><g mask="url(#mask-10)"><path d="M 793.2999877929688 547.7000122070312 L 840.0999755859375 465.79998779296875 L 803.2999877929688 552.0999755859375 L 844.5999755859375 570.2000122070312 L 847.7000122070312 571.5999755859375 L 849.0999755859375 575.5 L 883.0999755859375 673.5 L 910.7999877929688 649.7000122070312 L 896.0999755859375 603.0999755859375 L 919 642.5999755859375 L 949.7000122070312 616.2000122070312 L 944.9000244140625 554.4000244140625 L 944.7999877929688 552.9000244140625 L 946 552.2000122070312 L 1005.2999877929688 518.5999755859375 L 949.5 555.2000122070312 L 958.4000244140625 617.5999755859375 L 958.7000122070312 619.5999755859375 L 957 621.2000122070312 L 888.2999877929688 688.5999755859375 L 909.2999877929688 749.2000122070312 L 1144.5 849.2999877929688 L 1147.199951171875 689.5 L 1147.4000244140625 674.5999755859375 L 1161.4000244140625 673.7000122070312 L 1339.800048828125 662.2000122070312 L 1337.9000244140625 620 L 1262.0999755859375 608.5 L 1258.9000244140625 608 L 1259.5999755859375 605.0999755859375 L 1267.5 569.7000122070312 L 1240.300048828125 557.7999877929688 L 1268.300048828125 566 L 1277.199951171875 525.9000244140625 L 1265.800048828125 603 L 1337.4000244140625 608.5999755859375 L 1333 514.0999755859375 L 1358.0999755859375 661.0999755859375 L 1431.5 659.7999877929688 L 1500.5 576 L 1439.800048828125 667.9000244140625 L 1438.5999755859375 670.4000244140625 L 1435.4000244140625 670.7999877929688 L 1212.199951171875 708.7999877929688 L 1223.4000244140625 1600 L 1133 1600 L 1143.5999755859375 907.2000122070312 L 889.7999877929688 775.5 L 883 771.9000244140625 L 881.2999877929688 765.7000122070312 L 833.4000244140625 583.9000244140625 L 636.7999877929688 479.20001220703125 L 793.2999877929688 547.7000122070312 Z" fill="url(#Fade_to_Black_1-3)" style="mix-blend-mode:darken"/></g><path d="M2197.6,840.8h0a202.3,202.3,0,0,0-29.2-6.7,204.7,204.7,0,0,0-30.7-2.3h0c-112.3,0-203.3,91-203.3,203.3v479.7H2341V1035.2C2341,943.7,2280.6,866.4,2197.6,840.8Z" transform="translate(1 0)" fill="#cccbb8"/><path d="M2259.6,1485.9V1035.2c0-91.4-60.4-168.8-143.4-194.3h0q-9.4-2.9-19.2-4.9c-92.8,18.9-162.6,100.9-162.6,199.2v479.7h325.2Z" transform="translate(1 0)" fill="#d7d8bf"/><path d="M2153.2,832.5l6.9.7Z" transform="translate(1 0)" fill="#ccccb8"/><path d="M2176.5,835.6q6.9,1.3,13.6,3.1Q2183.3,836.9,2176.5,835.6Z" transform="translate(1 0)" fill="#ccccb8"/><path d="M2161.6,833.3l6.7.9Z" transform="translate(1 0)" fill="#ccccb8"/><path d="M2168.4,834.2l6.9,1.2Z" transform="translate(1 0)" fill="#ccccb8"/><path d="M2137.7,831.9h0Z" transform="translate(1 0)" fill="#ccccb8"/><path d="M2191,838.9l6.6,1.9Z" transform="translate(1 0)" fill="#ccccb8"/><path d="M2146.4,832.1l6.7.4Z" transform="translate(1 0)" fill="#ccccb8"/><path d="M2098.9,835.6l1.2-.2Z" transform="translate(1 0)" fill="#ccccb8"/><path d="M 2078.800048828125 840.7999877929688 L 2078.800048828125 840.7999877929688 L 2078.800048828125 840.7999877929688 L 2078.800048828125 840.7999877929688 Z" fill="#ccccb8"/><path d="M2084.4,838.9l.9-.3Z" transform="translate(1 0)" fill="#ccccb8"/><path d="M2107,834.2h0Z" transform="translate(1 0)" fill="#ccccb8"/><path d="M2129,832.1h0Z" transform="translate(1 0)" fill="#ccccb8"/><path d="M2122.2,832.5h0Z" transform="translate(1 0)" fill="#ccccb8"/><path d="M2113.8,833.3l1.5-.2Z" transform="translate(1 0)" fill="#ccccb8"/><path d="M 1873.699951 1557.400024 H 2409.499939 V 1599.960026 H 1873.699951 V 1557.400024 Z" id="_Path_8" data-name="&lt;Path&gt;" fill="#d7d8bf"/><path d="M 1908.800049 1514.900024 H 2374.400055 V 1557.460026 H 1908.800049 V 1514.900024 Z" id="_Path_9" data-name="&lt;Path&gt;" fill="#d7d8bf"/><path d="M 1908.800049 1548.300049 H 2374.400055 V 1557.400049 H 1908.800049 V 1548.300049 Z" id="_Path_10" data-name="&lt;Path&gt;" fill="#ceceb7"/><path d="M 1873.699951 1590.900024 H 2409.499939 V 1600.000025 H 1873.699951 V 1590.900024 Z" id="_Path_11" data-name="&lt;Path&gt;" fill="#ceceb7"/><path d="M 1935.400024 1485.900024 H 2260.600037 V 1514.910025 H 1935.400024 V 1485.900024 Z" id="_Path_12" data-name="&lt;Path&gt;" fill="#ceceb7"/><path d="M 2260.60009765625 1485.9000244140625 L 2260.60009765625 1514.9000244140625 L 2342 1514.9000244140625 L 2342 1514.9000244140625 L 2342 1485.9000244140625 L 2260.60009765625 1485.9000244140625 Z" fill="#c6c5b3"/><path d="M 2090.499902 1350.599976 H 2190.399901 A 7.1 7.1 0 0 1 2197.499901 1357.699975 V 1401.649977 A 7.1 7.1 0 0 1 2190.399901 1408.749977 H 2090.499902 A 7.1 7.1 0 0 1 2083.399902 1401.649977 V 1357.699975 A 7.1 7.1 0 0 1 2090.499902 1350.599976 Z" id="_Path_13" data-name="&lt;Path&gt;" fill="#e1e1c8"/><path id="_Path_14" data-name="&lt;Path&gt;" d="M1981.4,1090.4h-47v58.2h47a7.1,7.1,0,0,0,7.1-7.1v-43.9A7.1,7.1,0,0,0,1981.4,1090.4Z" transform="translate(1 0)" fill="#c8c7b4"/><path d="M 2025.699975 1284.900024 H 2125.599974 A 7.1 7.1 0 0 1 2132.699974 1292.000024 V 1335.950026 A 7.1 7.1 0 0 1 2125.599974 1343.050026 H 2025.699975 A 7.1 7.1 0 0 1 2018.599976 1335.950026 V 1292.000024 A 7.1 7.1 0 0 1 2025.699975 1284.900024 Z" id="_Path_15" data-name="&lt;Path&gt;" fill="#c8c7b4"/><path id="_Path_16" data-name="&lt;Path&gt;" d="M2294,1148.5h47v-58.2h-47a7.1,7.1,0,0,0-7.1,7.1v43.9A7.1,7.1,0,0,0,2294,1148.5Z" transform="translate(1 0)" fill="#c8c7b4"/><path d="M 2235.1 1156 H 2334.999999 A 7.1 7.1 0 0 1 2342.099998 1163.1 V 1207.050002 A 7.1 7.1 0 0 1 2334.999999 1214.150002 H 2235.1 A 7.1 7.1 0 0 1 2228 1207.050002 V 1163.1 A 7.1 7.1 0 0 1 2235.1 1156 Z" id="_Path_17" data-name="&lt;Path&gt;" fill="#e1e1c8"/><path id="_Path_18" data-name="&lt;Path&gt;" d="M937.4,509.6h-33A43.6,43.6,0,0,1,860.8,466h0a43.6,43.6,0,0,1,43.6-43.6h55.7a43.6,43.6,0,1,0,0-87.1H779.3a43.6,43.6,0,0,1-43.6-43.6h0a43.6,43.6,0,0,1,43.6-43.6h301a43.6,43.6,0,1,0,0-87.1H295.8a43.6,43.6,0,0,0,0,87.1H599.1a43.6,43.6,0,1,1,0,87.1H440.5a43.6,43.6,0,0,0,0,87.1H652.8a43.6,43.6,0,0,1,0,87.1h-63a43.6,43.6,0,0,0,0,87.1H937.4a43.6,43.6,0,0,0,0-87.1Z" transform="translate(1 0)" fill="#979c9c" opacity="0.05"/><path id="_Path_19" data-name="&lt;Path&gt;" d="M1620.7,335.1h33a43.6,43.6,0,0,1,43.6,43.6h0a43.6,43.6,0,0,1-43.6,43.6H1598a43.6,43.6,0,0,0,0,87.1h180.8a43.6,43.6,0,0,1,43.6,43.6h0a43.6,43.6,0,0,1-43.6,43.6h-301a43.6,43.6,0,1,0,0,87.1h784.5a43.6,43.6,0,0,0,0-87.1H1959a43.6,43.6,0,1,1,0-87.1h158.6a43.6,43.6,0,0,0,0-87.1H1905.3a43.6,43.6,0,0,1,0-87.1h63a43.6,43.6,0,1,0,0-87.1H1620.7a43.6,43.6,0,0,0,0,87.1Z" transform="translate(1 0)" fill="#979c9c" opacity="0.05"/><path d="M1059.8,1191.9h128.8V1140H1059.8a23.6,23.6,0,0,0-23.6,23.6v4.7A23.6,23.6,0,0,0,1059.8,1191.9Z" transform="translate(1 0)" fill="#666560"/><path d="M1059.8,1243.7h128.8v-51.9H1059.8a23.6,23.6,0,0,0-23.6,23.6v4.7A23.6,23.6,0,0,0,1059.8,1243.7Z" transform="translate(1 0)" fill="#666560"/><path d="M1188.5,1243.7V1140s-12,13.3-12,51.9S1188.5,1243.7,1188.5,1243.7Z" transform="translate(1 0)" fill="#565554"/><path d="M 1242.699951171875 1600 L 1018.2999877929688 195.8000030517578 L 963.2999877929688 204.60000610351562 L 1186.300048828125 1600 L 1242.699951171875 1600 Z" fill="#d97e49"/><path d="M 1242.699951171875 1600 L 1018.2999877929688 195.8000030517578 L 998 199.10000610351562 L 1221.9000244140625 1600 L 1242.699951171875 1600 Z" fill="#c66839"/><path d="M1059.2,1191.9h61.7a25.9,25.9,0,0,0,25.9-25.9h0a25.9,25.9,0,0,0-25.9-25.9h-61.7a23.6,23.6,0,0,0-23.6,23.6v4.7A23.6,23.6,0,0,0,1059.2,1191.9Z" transform="translate(1 0)" fill="#6d6c66"/><path d="M1120.9,1140h-47a28.6,28.6,0,0,0,22.9,22.8l49.3,9.1a26,26,0,0,0,.7-5.9h0A25.9,25.9,0,0,0,1120.9,1140Z" transform="translate(1 0)" fill="#63625d"/><path d="M1059.2,1243.7h61.7a25.9,25.9,0,0,0,25.9-25.9h0a25.9,25.9,0,0,0-25.9-25.9h-61.7a23.6,23.6,0,0,0-23.6,23.6v4.7A23.6,23.6,0,0,0,1059.2,1243.7Z" transform="translate(1 0)" fill="#6d6c66"/><path d="M1097.8,1157.9l60.7,11.2a25.9,25.9,0,0,0,30.2-20.8l2.2-11.9a13.9,13.9,0,0,0-11.1-16.1l-72.6-13.3a23.6,23.6,0,0,0-27.5,18.9l-.8,4.6A23.6,23.6,0,0,0,1097.8,1157.9Z" transform="translate(1 0)" fill="#6d6c66"/><path d="M1042.1,1199.2H1139a25.8,25.8,0,0,0-18.1-7.3h-61.7A23.5,23.5,0,0,0,1042.1,1199.2Z" transform="translate(1 0)" fill="#63625d"/><path d="M2108,1600,1773.6,959h92.9V728c0-148.6-120.4-269-269-269h-8c-113.2,0-205,91.8-205,205V906.1c-2.4,132.8-78.6,215.4-195.9,215.4v140h168.9a27.1,27.1,0,0,1,27.1,27.1V1600Z" transform="translate(1 0)" fill="#2c2a2d"/><g mask="url(#mask-11)"><path d="M2108,1600,1773.6,959h92.9V728c0-148.6-120.4-269-269-269h-8c-113.2,0-205,91.8-205,205V906.1c-2.4,132.8-78.6,215.4-195.9,215.4v140h168.9a27.1,27.1,0,0,1,27.1,27.1V1600Z" transform="translate(1 0)" fill="url(#Fade_to_Black_1-4)" style="mix-blend-mode:darken"/></g><path d="M1217.6,1252.1h128.8v-51.9H1217.6a23.6,23.6,0,0,0-23.6,23.6v4.7A23.6,23.6,0,0,0,1217.6,1252.1Z" transform="translate(1 0)" fill="#7c7b71"/><path d="M1217.6,1304h128.8v-51.9H1217.6a23.6,23.6,0,0,0-23.6,23.6v4.7A23.6,23.6,0,0,0,1217.6,1304Z" transform="translate(1 0)" fill="#7c7b71"/><path d="M1346.3,1200.3h0a18,18,0,0,0-13.5-17.4l-43.2-11.3a18,18,0,0,0-10.7.5l-30.3,10.9a18,18,0,0,0-9.4,7.9l-5.5,9.4Z" transform="translate(1 0)" fill="#7c7b71"/><path d="M1238,1193l-4.3,7.3h112.6a18,18,0,0,0-1.6-7.3Z" transform="translate(1 0)" fill="#6d6c66"/><path d="M1200.5,1259.5h46.6v-7.3h-29.5A23.5,23.5,0,0,0,1200.5,1259.5Z" transform="translate(1 0)" fill="#6d6c66"/><path d="M1346.3,1304V1200.3s-12,13.3-12,51.9S1346.3,1304,1346.3,1304Z" transform="translate(1 0)" fill="#6d6c66"/><path d="M1155.8,1252.1h128.8v-51.9H1155.8a23.6,23.6,0,0,0-23.6,23.6v4.7A23.6,23.6,0,0,0,1155.8,1252.1Z" transform="translate(1 0)" fill="#7c7b71"/><path d="M1660.1,528.7c130,0,235.8,76,235.8,169.3a127,127,0,0,1-14.6,58.7l-1.1,2.2.9,2.3c6,15.7,7.3,31.2,4,46.1s-11.9,29.4-24.9,41.4-29.4,21-49.4,27.5l-3.7,1.2v3.9a8.6,8.6,0,0,1-8.6,8.5H1521.8a8.6,8.6,0,0,1-8.6-8.6v-4.5l-3.8-1.2c-20-6.5-36.6-15.7-49.4-27.5s-21.4-25.8-24.9-41.4-2-30.1,3.8-45.7l.9-2.3-1.1-2.2a127,127,0,0,1-14.5-58.4c0-93.4,105.8-169.3,235.8-169.3m0-5.5c-133.3,0-241.3,78.3-241.3,174.8a132.6,132.6,0,0,0,15.1,60.9c-6.1,16.1-7.7,32.7-4.1,48.9,7.7,34,37.1,59.6,77.9,72.8v.5a14.1,14.1,0,0,0,14.1,14.1h276.6a14.1,14.1,0,0,0,14.1-13.9c40.8-13.3,70.2-38.8,77.9-72.8,3.7-16.3,2-33-4.2-49.3a132.7,132.7,0,0,0,15.2-61.3c0-96.5-108-174.8-241.3-174.8Z" transform="translate(1 0)" fill="#262626"/><path d="M1885,807.3c3.4-14.9,2-30.4-4-46.1l-.9-2.3,1.1-2.2a127,127,0,0,0,14.6-58.7c0-93.4-105.8-169.3-235.8-169.3s-235.8,76-235.8,169.3a127,127,0,0,0,14.5,58.4l1.1,2.2-.9,2.3c-5.9,15.6-7.2,31-3.8,45.7S1447,836,1460,848s29.4,21,49.4,27.5l3.8,1.2v4.5a8.6,8.6,0,0,0,8.6,8.6h276.6a8.6,8.6,0,0,0,8.6-8.5v-3.9l3.7-1.2c20-6.5,36.6-15.7,49.4-27.5S1881.5,822.8,1885,807.3Z" transform="translate(1 0)" fill="#e5e5e5"/><path d="M1739,881.3h0a5.5,5.5,0,0,1,3.8-5.1h0c20-6.5,36.6-15.7,49.4-27.5s21.4-25.8,24.9-41.4,2-30.4-4-46.1l-.9-2.3,1.1-2.2a127,127,0,0,0,14.6-58.7c0-85.1-87.8-155.7-201.8-167.6-114,11.9-201.8,82.5-201.8,167.6a127,127,0,0,0,14.5,58.4l1.1,2.2-.9,2.3c-5.9,15.6-7.2,31-3.8,45.7S1447,836,1460,848s29.4,21,49.4,27.5l3.8,1.2v4.5a8.6,8.6,0,0,0,8.6,8.6h208.6A8.7,8.7,0,0,0,1739,881.3Z" transform="translate(1 0)" fill="#f2f2f2"/><path d="M1718.9,845.6h0a74.4,74.4,0,0,1-74.4-74.4V716.9a20.1,20.1,0,0,1,20.1-20.1h54.3a74.4,74.4,0,0,1,74.4,74.4h0A74.4,74.4,0,0,1,1718.9,845.6Z" transform="translate(1 0)" fill="#2d2d2d"/><path d="M1566.7,845.6h0a74.4,74.4,0,0,0,74.4-74.4V716.9a20.1,20.1,0,0,0-20.1-20.1h-54.3a74.4,74.4,0,0,0-74.4,74.4h0A74.4,74.4,0,0,0,1566.7,845.6Z" transform="translate(1 0)" fill="#2d2d2d"/><path d="M1661.1,828.8c-6.1-6.1-13-9.8-17.8-9.9h-.5c-4.8.1-11.7,3.8-17.8,9.9-8.5,8.5-12.2,18.4-8.5,22.2s13.7,0,22.2-8.5c1.6-1.6,3.1,7.6,4.3,6,1.3,1.7,2.7-7.6,4.3-6,8.5,8.5,18.4,12.2,22.2,8.5S1669.5,837.3,1661.1,828.8Z" transform="translate(1 0)" fill="#262626"/><path d="M1845.6,758.8a127.2,127.2,0,0,0-16.9-28.9c9.6,8.4,17.4,17.8,22.4,28.9Z" transform="translate(1 0)" fill="#262626"/><path d="M1439.8,758.8a127.2,127.2,0,0,1,16.9-28.9c-9.6,8.4-17.4,17.8-22.4,28.9Z" transform="translate(1 0)" fill="#262626"/><path d="M1793.2,774.4a74.4,74.4,0,0,0-143.7,23.9,74.4,74.4,0,0,0,69.3,47.4h0A74.4,74.4,0,0,0,1793.2,774.4Z" transform="translate(1 0)" fill="#212121"/><path d="M1615.5,843.7c-.8,3.1-.5,5.7,1,7.3,3.8,3.8,13.7,0,22.2-8.5,1.6-1.6,3.1,7.6,4.3,6,1.3,1.7,2.7-7.6,4.3-6,8.5,8.5,18.4,12.2,22.2,8.5,2.1-2.1,1.9-6.1-.2-10.7a44.2,44.2,0,0,0-24.7-7.6A44.8,44.8,0,0,0,1615.5,843.7Z" transform="translate(1 0)" fill="#212121"/><path d="M1492.1,774.4a74.4,74.4,0,0,1,143.7,23.9,74.4,74.4,0,0,1-69.3,47.4h0A74.4,74.4,0,0,1,1492.1,774.4Z" transform="translate(1 0)" fill="#212121"/><path d="M2265.8,1600,1910.5,976.8a27.5,27.5,0,0,1,4-32.6l68.9-72.3a25.8,25.8,0,0,0,4.8-7L2046,739.1a25.8,25.8,0,0,0,2.4-10.8v-130a25.8,25.8,0,0,1,3.9-13.6l75-120.8a25.8,25.8,0,0,0,3.7-10.8l18.3-168a25.8,25.8,0,0,0-5.1-18.4L2080.3,183v83.1a25.8,25.8,0,0,1-5.4,15.8l-78.8,101.1a25.8,25.8,0,0,1-20.3,9.9H1850a25.8,25.8,0,0,0-16.9,6.3l-61.5,53.4a25.8,25.8,0,0,1-16.9,6.3H1559.3c133.6,50.4,192.3,184,186.8,388.9A114,114,0,0,1,1632.2,959h-89.8c0,136.7-76.7,222-196,222v140h168.9a27.1,27.1,0,0,1,27.1,27.1V1600Z" transform="translate(1 0)" fill="#39393a"/><g mask="url(#mask-12)"><path d="M2265.8,1600,1910.5,976.8a27.5,27.5,0,0,1,4-32.6l68.9-72.3a25.8,25.8,0,0,0,4.8-7L2046,739.1a25.8,25.8,0,0,0,2.4-10.8v-130a25.8,25.8,0,0,1,3.9-13.6l75-120.8a25.8,25.8,0,0,0,3.7-10.8l18.3-168a25.8,25.8,0,0,0-5.1-18.4L2080.3,183v83.1a25.8,25.8,0,0,1-5.4,15.8l-78.8,101.1a25.8,25.8,0,0,1-20.3,9.9H1850a25.8,25.8,0,0,0-16.9,6.3l-61.5,53.4a25.8,25.8,0,0,1-16.9,6.3H1559.3c133.6,50.4,192.3,184,186.8,388.9A114,114,0,0,1,1632.2,959h-89.8c0,136.7-76.7,222-196,222v140h168.9a27.1,27.1,0,0,1,27.1,27.1V1600Z" transform="translate(1 0)" fill="url(#Fade_to_Black_1-5)" style="mix-blend-mode:darken"/></g><path d="M1027.6,194.2,1080.5,525c242.8-143.9,461.3-183.9,685.8-109.6C1560,282.6,1310.9,213.1,1027.6,194.2Z" transform="translate(1 0)" fill="#f1f2f2"/><path d="M1656.6,388.1c-181.5-90.4-390.7-139.9-622.8-155.4L1080.5,525C1283.6,404.6,1469.7,357,1656.6,388.1Z" transform="translate(1 0)" fill="#e0e0e0"/><path d="M 971.100012 238.300003 H 1033.000009 A 7.4 7.4 0 0 1 1040.400009 245.700003 V 307.570001 A 7.4 7.4 0 0 1 1033.000009 314.970001 H 971.100012 A 7.4 7.4 0 0 1 963.700012 307.570001 V 245.700003 A 7.4 7.4 0 0 1 971.100012 238.300003 Z" transform="translate(-30.1 161.6) rotate(-9.1)" fill="#ddd"/><path d="M965.4,243.6a7.4,7.4,0,0,0-6.1,8.5l9.3,57.9,57.9-9.3a7.4,7.4,0,0,0,6.1-8.5l-9.3-57.9Z" transform="translate(1 0)" fill="#f1f2f2"/><path d="M 999.999976 419.299988 H 1061.899972 A 7.4 7.4 0 0 1 1069.299973 426.699988 V 488.569986 A 7.4 7.4 0 0 1 1061.899972 495.969986 H 999.999976 A 7.4 7.4 0 0 1 992.599976 488.569986 V 426.699988 A 7.4 7.4 0 0 1 999.999976 419.299988 Z" transform="translate(-58.3 168.4) rotate(-9.1)" fill="#ddd"/><path d="M994.3,424.7a7.4,7.4,0,0,0-6.1,8.5l9.3,57.9,57.9-9.3a7.4,7.4,0,0,0,6.1-8.5l-9.3-57.9Z" transform="translate(1 0)" fill="#f1f2f2"/><path d="M1037.9,324.7q-29.9-3.6-54.9,8.8l-2.3-14.7,54.9-8.8Z" transform="translate(1 0)" fill="#414042" opacity="0.2" style="mix-blend-mode:darken"/><path d="M1066.8,505.8q-29.9-3.6-54.9,8.8l-2.3-14.7,54.9-8.8Z" transform="translate(1 0)" fill="#414042" opacity="0.2" style="mix-blend-mode:darken"/><g mask="url(#mask-13)"><path d="M 1104.9000244140625 1090.4000244140625 L 1186.300048828125 1600 L 1242.699951171875 1600 L 1161.199951171875 1090.4000244140625 L 1104.9000244140625 1090.4000244140625 Z" fill="url(#Fade_to_Black_1-6)" style="mix-blend-mode:darken"/></g><g mask="url(#mask-14)"><path d="M1698.9,861a120.1,120.1,0,0,1-54.1,97.3,114.1,114.1,0,0,0,101.3-110.4c5.4-202.8-52-335.7-182.6-387.3a204,204,0,0,0-28.2,5.6C1652.6,528.1,1704.2,663,1698.9,861Z" transform="translate(1 0)" fill="url(#Fade_to_Black_1-7)" style="mix-blend-mode:darken"/></g><path d="M 253.1999969482422 556.9000244140625 L 172.3000030517578 556.9000244140625 L 253.1999969482422 476 L 253.1999969482422 556.9000244140625 Z" fill="#babec1" opacity="0.45"/><path d="M 253.1999969482422 476 L 253.1999969482422 556.9000244140625 L 172.3000030517578 556.9000244140625 L 172.3000030517578 1124 L 788.9000244140625 1124 L 788.9000244140625 476 L 253.1999969482422 476 Z" fill="#babec1" opacity="0.2"/><text transform="translate(235.6 833.4)" font-size="52.67" fill="#f37434" font-family="OpenSans-Semibold, Open Sans" font-weight="700" letter-spacing="0.02em" style="font-size: 52.67px; fill: rgb(243, 116, 52); font-family: OpenSans-Semibold, 'Open Sans'; font-weight: 700; letter-spacing: 0.02em; white-space: pre;">PAGE NOT FOUND!</text><text transform="translate(239.2 890.3)" font-size="26.25" fill="#f1f2f2" font-family="OpenSans, Open Sans" letter-spacing="0.03em" style="font-size: 26.25px; fill: rgb(241, 242, 242); font-family: OpenSans, 'Open Sans'; letter-spacing: 0.03em; white-space: pre;">OUR DEEPEST CONDOLENCES TO YOU</text><text transform="translate(283.9 943.9)" font-size="18.27" fill="#282a33" font-family="OpenSans-Light, Open Sans" letter-spacing="0.02em" style="font-size: 18.27px; fill: rgb(40, 42, 51); font-family: OpenSans-Light, 'Open Sans'; letter-spacing: 0.02em; white-space: pre;">Sorry, the page you were looking doesn’t exist.<tspan x="17.9" y="29.2">Try other site or go back to previous page.</tspan></text><text transform="translate(426.4 1081.6)" font-size="11" fill="#fff" font-family="OpenSans-Light, Open Sans" letter-spacing="0.02em" style="font-size: 11px; fill: rgb(255, 255, 255); font-family: OpenSans-Light, 'Open Sans'; letter-spacing: 0.02em; white-space: pre;">www.loremipsum.com</text><text transform="translate(232 754.8)" font-size="282.36" fill="#f37434" font-family="OpenSans-Semibold, Open Sans" font-weight="700" letter-spacing="0.03em" style="font-size: 282.36px; fill: rgb(243, 116, 52); font-family: OpenSans-Semibold, 'Open Sans'; font-weight: 700; letter-spacing: 0.03em; white-space: pre;">404</text><path d="M 403.300006 1003.299988 H 557.900006 A 9.2 9.2 0 0 1 567.100006 1012.499988 V 1050.139989 A 9.2 9.2 0 0 1 557.900006 1059.339989 H 403.300006 A 9.2 9.2 0 0 1 394.100006 1050.139989 V 1012.499988 A 9.2 9.2 0 0 1 403.300006 1003.299988 Z" fill="#f37434"/><text transform="translate(424.3 1040.1)" font-size="26.25" fill="#f1f2f2" font-family="OpenSans-Semibold, Open Sans" font-weight="700" letter-spacing="0.02em" style="font-size: 26.25px; fill: rgb(241, 242, 242); font-family: OpenSans-Semibold, 'Open Sans'; font-weight: 700; letter-spacing: 0.02em; white-space: pre;">GO BACK</text></g></svg>